<mxfile host="Electron" agent="Mozilla/5.0 (Windows NT 10.0; Win64; x64) AppleWebKit/537.36 (KHTML, like Gecko) draw.io/24.7.17 Chrome/128.0.6613.36 Electron/32.0.1 Safari/537.36" version="24.7.17">
  <diagram name="페이지-1" id="MQLZklIZZMq7llc1gagY">
    <mxGraphModel dx="1434" dy="836" grid="1" gridSize="10" guides="1" tooltips="1" connect="1" arrows="1" fold="1" page="1" pageScale="1" pageWidth="827" pageHeight="1169" math="0" shadow="0">
      <root>
        <mxCell id="0" />
        <mxCell id="1" parent="0" />
        <mxCell id="9NNrpIZ2RM2DyVKkmO5t-5" value="&lt;div&gt;&lt;b&gt;&lt;br&gt;&lt;/b&gt;&lt;/div&gt;&lt;b&gt;Network Protocol&lt;/b&gt;" style="html=1;dropTarget=0;whiteSpace=wrap;verticalAlign=top;" vertex="1" parent="1">
          <mxGeometry x="120" y="180" width="740" height="120" as="geometry" />
        </mxCell>
        <mxCell id="9NNrpIZ2RM2DyVKkmO5t-6" value="" style="shape=module;jettyWidth=8;jettyHeight=4;" vertex="1" parent="9NNrpIZ2RM2DyVKkmO5t-5">
          <mxGeometry x="1" width="20" height="20" relative="1" as="geometry">
            <mxPoint x="-27" y="7" as="offset" />
          </mxGeometry>
        </mxCell>
        <mxCell id="9NNrpIZ2RM2DyVKkmO5t-7" value="&lt;b&gt;Server&lt;/b&gt;&lt;div&gt;&lt;b&gt;(Remote / Host)&lt;/b&gt;&lt;/div&gt;" style="rounded=0;whiteSpace=wrap;html=1;fillColor=#f5f5f5;fontColor=#333333;strokeColor=#666666;" vertex="1" parent="1">
          <mxGeometry x="120" y="100" width="740" height="60" as="geometry" />
        </mxCell>
        <mxCell id="9NNrpIZ2RM2DyVKkmO5t-10" value="&lt;div&gt;&lt;b&gt;&lt;br&gt;&lt;/b&gt;&lt;/div&gt;&lt;b&gt;UI&lt;/b&gt;" style="html=1;dropTarget=0;whiteSpace=wrap;verticalAlign=top;" vertex="1" parent="1">
          <mxGeometry x="120" y="540" width="900" height="110" as="geometry" />
        </mxCell>
        <mxCell id="9NNrpIZ2RM2DyVKkmO5t-11" value="" style="shape=module;jettyWidth=8;jettyHeight=4;" vertex="1" parent="9NNrpIZ2RM2DyVKkmO5t-10">
          <mxGeometry x="1" width="20" height="20" relative="1" as="geometry">
            <mxPoint x="-27" y="7" as="offset" />
          </mxGeometry>
        </mxCell>
        <mxCell id="9NNrpIZ2RM2DyVKkmO5t-13" value="Tab" style="shape=module;align=left;spacingLeft=20;align=center;verticalAlign=top;whiteSpace=wrap;html=1;" vertex="1" parent="1">
          <mxGeometry x="390" y="590" width="100" height="50" as="geometry" />
        </mxCell>
        <mxCell id="9NNrpIZ2RM2DyVKkmO5t-14" value="&lt;div&gt;&lt;b&gt;&lt;br&gt;&lt;/b&gt;&lt;/div&gt;&lt;b&gt;STORAGE&lt;/b&gt;" style="html=1;dropTarget=0;whiteSpace=wrap;verticalAlign=top;" vertex="1" parent="1">
          <mxGeometry x="120" y="320" width="180" height="200" as="geometry" />
        </mxCell>
        <mxCell id="9NNrpIZ2RM2DyVKkmO5t-15" value="" style="shape=module;jettyWidth=8;jettyHeight=4;" vertex="1" parent="9NNrpIZ2RM2DyVKkmO5t-14">
          <mxGeometry x="1" width="20" height="20" relative="1" as="geometry">
            <mxPoint x="-27" y="7" as="offset" />
          </mxGeometry>
        </mxCell>
        <mxCell id="9NNrpIZ2RM2DyVKkmO5t-19" value="SSH" style="shape=module;align=center;spacingLeft=20;align=center;verticalAlign=middle;whiteSpace=wrap;html=1;" vertex="1" parent="1">
          <mxGeometry x="150" y="230" width="100" height="50" as="geometry" />
        </mxCell>
        <mxCell id="9NNrpIZ2RM2DyVKkmO5t-20" value="FTP" style="shape=module;align=center;spacingLeft=20;align=center;verticalAlign=middle;whiteSpace=wrap;html=1;" vertex="1" parent="1">
          <mxGeometry x="390" y="230" width="100" height="50" as="geometry" />
        </mxCell>
        <mxCell id="9NNrpIZ2RM2DyVKkmO5t-21" value="Telnet" style="shape=module;align=center;spacingLeft=20;align=center;verticalAlign=middle;whiteSpace=wrap;html=1;" vertex="1" parent="1">
          <mxGeometry x="270" y="230" width="100" height="50" as="geometry" />
        </mxCell>
        <mxCell id="9NNrpIZ2RM2DyVKkmO5t-22" value="SFTP" style="shape=module;align=center;spacingLeft=20;align=center;verticalAlign=middle;whiteSpace=wrap;html=1;" vertex="1" parent="1">
          <mxGeometry x="510" y="230" width="100" height="50" as="geometry" />
        </mxCell>
        <mxCell id="9NNrpIZ2RM2DyVKkmO5t-23" value="Scalable.." style="rounded=0;whiteSpace=wrap;html=1;fillColor=#647687;strokeColor=#314354;fontColor=#ffffff;" vertex="1" parent="1">
          <mxGeometry x="757" y="230" width="70" height="50" as="geometry" />
        </mxCell>
        <mxCell id="9NNrpIZ2RM2DyVKkmO5t-24" value="&lt;div&gt;&lt;b&gt;&lt;br&gt;&lt;/b&gt;&lt;/div&gt;&lt;b&gt;Config&lt;/b&gt;" style="html=1;dropTarget=0;whiteSpace=wrap;verticalAlign=top;" vertex="1" parent="1">
          <mxGeometry x="330" y="320" width="180" height="200" as="geometry" />
        </mxCell>
        <mxCell id="9NNrpIZ2RM2DyVKkmO5t-25" value="" style="shape=module;jettyWidth=8;jettyHeight=4;" vertex="1" parent="9NNrpIZ2RM2DyVKkmO5t-24">
          <mxGeometry x="1" width="20" height="20" relative="1" as="geometry">
            <mxPoint x="-27" y="7" as="offset" />
          </mxGeometry>
        </mxCell>
        <mxCell id="9NNrpIZ2RM2DyVKkmO5t-26" value="Panel" style="shape=module;align=left;spacingLeft=20;align=center;verticalAlign=top;whiteSpace=wrap;html=1;" vertex="1" parent="1">
          <mxGeometry x="510" y="590" width="100" height="50" as="geometry" />
        </mxCell>
        <mxCell id="9NNrpIZ2RM2DyVKkmO5t-27" value="Menu Bar" style="shape=module;align=left;spacingLeft=20;align=center;verticalAlign=top;whiteSpace=wrap;html=1;" vertex="1" parent="1">
          <mxGeometry x="150" y="590" width="100" height="50" as="geometry" />
        </mxCell>
        <mxCell id="9NNrpIZ2RM2DyVKkmO5t-28" value="Tool Bar" style="shape=module;align=left;spacingLeft=20;align=center;verticalAlign=top;whiteSpace=wrap;html=1;" vertex="1" parent="1">
          <mxGeometry x="270" y="590" width="100" height="50" as="geometry" />
        </mxCell>
        <mxCell id="9NNrpIZ2RM2DyVKkmO5t-29" value="Side Bar" style="shape=module;align=left;spacingLeft=20;align=center;verticalAlign=top;whiteSpace=wrap;html=1;" vertex="1" parent="1">
          <mxGeometry x="750" y="590" width="100" height="50" as="geometry" />
        </mxCell>
        <mxCell id="9NNrpIZ2RM2DyVKkmO5t-30" value="Dialog&lt;div&gt;(대화 상자)&lt;/div&gt;" style="shape=module;align=left;spacingLeft=20;align=center;verticalAlign=top;whiteSpace=wrap;html=1;" vertex="1" parent="1">
          <mxGeometry x="870" y="590" width="100" height="50" as="geometry" />
        </mxCell>
        <mxCell id="9NNrpIZ2RM2DyVKkmO5t-31" value="&lt;div&gt;&lt;b&gt;&lt;br&gt;&lt;/b&gt;&lt;/div&gt;&lt;b&gt;Utils&lt;/b&gt;" style="html=1;dropTarget=0;whiteSpace=wrap;verticalAlign=top;" vertex="1" parent="1">
          <mxGeometry x="540" y="320" width="180" height="200" as="geometry" />
        </mxCell>
        <mxCell id="9NNrpIZ2RM2DyVKkmO5t-32" value="" style="shape=module;jettyWidth=8;jettyHeight=4;" vertex="1" parent="9NNrpIZ2RM2DyVKkmO5t-31">
          <mxGeometry x="1" width="20" height="20" relative="1" as="geometry">
            <mxPoint x="-27" y="7" as="offset" />
          </mxGeometry>
        </mxCell>
        <mxCell id="9NNrpIZ2RM2DyVKkmO5t-33" value="Text Editor" style="shape=module;align=center;spacingLeft=20;align=center;verticalAlign=middle;whiteSpace=wrap;html=1;" vertex="1" parent="1">
          <mxGeometry x="580" y="370" width="100" height="50" as="geometry" />
        </mxCell>
        <mxCell id="9NNrpIZ2RM2DyVKkmO5t-34" value="Preset&lt;div&gt;(Bookmark)&lt;/div&gt;" style="shape=module;align=center;spacingLeft=20;align=center;verticalAlign=middle;whiteSpace=wrap;html=1;" vertex="1" parent="1">
          <mxGeometry x="580" y="430" width="100" height="50" as="geometry" />
        </mxCell>
        <mxCell id="9NNrpIZ2RM2DyVKkmO5t-35" value="Window" style="shape=module;align=left;spacingLeft=20;align=center;verticalAlign=top;whiteSpace=wrap;html=1;" vertex="1" parent="1">
          <mxGeometry x="630" y="590" width="100" height="50" as="geometry" />
        </mxCell>
        <mxCell id="9NNrpIZ2RM2DyVKkmO5t-36" value="Shell" style="shape=module;align=center;spacingLeft=20;align=center;verticalAlign=middle;whiteSpace=wrap;html=1;" vertex="1" parent="1">
          <mxGeometry x="630" y="230" width="100" height="50" as="geometry" />
        </mxCell>
        <mxCell id="9NNrpIZ2RM2DyVKkmO5t-37" value="&lt;div&gt;&lt;b&gt;&lt;br&gt;&lt;/b&gt;&lt;/div&gt;&lt;b&gt;Browser&lt;/b&gt;" style="html=1;dropTarget=0;whiteSpace=wrap;verticalAlign=top;" vertex="1" parent="1">
          <mxGeometry x="880" y="180" width="140" height="120" as="geometry" />
        </mxCell>
        <mxCell id="9NNrpIZ2RM2DyVKkmO5t-38" value="" style="shape=module;jettyWidth=8;jettyHeight=4;" vertex="1" parent="9NNrpIZ2RM2DyVKkmO5t-37">
          <mxGeometry x="1" width="20" height="20" relative="1" as="geometry">
            <mxPoint x="-27" y="7" as="offset" />
          </mxGeometry>
        </mxCell>
        <mxCell id="9NNrpIZ2RM2DyVKkmO5t-39" value="&lt;b&gt;Internet&lt;/b&gt;" style="rounded=0;whiteSpace=wrap;html=1;fillColor=#f5f5f5;fontColor=#333333;strokeColor=#666666;" vertex="1" parent="1">
          <mxGeometry x="880" y="100" width="140" height="60" as="geometry" />
        </mxCell>
      </root>
    </mxGraphModel>
  </diagram>
</mxfile>
